# xmcd
#
# Track frame offsets: 
#        150
#        20407
#        40607
#        66302
#
# Disc length: 1189 seconds
#
# Revision: 2
# Processed by: cddbd v1.5.2PL0 Copyright (c) Steve Scherf et al.
# Submitted via: ExactAudioCopy v1.0b3
#
DISCID=2b04a304
DTITLE=Snoop Doggy Dogg - Doggy Dogg World
DYEAR=1994
DGENRE=West Coast G-Funk
TTITLE0=Snoop Doggy Dogg/Tha Dogg Pound/The Dramatics - Doggy Dogg Wor
TTITLE0=ld (Perfecto Radio Mix)
TTITLE1=Snoop Doggy Dogg/Tha Dogg Pound/The Dramatics - Doggy Dogg Wor
TTITLE1=ld (Dr. Dre Radio Edit)
TTITLE2=Snoop Doggy Dogg/Tha Dogg Pound/The Dramatics - Doggy Dogg Wor
TTITLE2=ld (Perfecto Mix)
TTITLE3=Snoop Doggy Dogg/Tha Dogg Pound/The Dramatics - Doggy Dogg Wor
TTITLE3=ld (LP Version)
EXTD=
EXTT0=
EXTT1=
EXTT2=
EXTT3=
PLAYORDER=
